<?xml version="1.0" standalone="no"?><!DOCTYPE svg PUBLIC "-//W3C//DTD SVG 1.1//EN" "http://www.w3.org/Graphics/SVG/1.1/DTD/svg11.dtd"><svg t="1560930935409" class="icon" style="" viewBox="0 0 1024 1024" version="1.1" xmlns="http://www.w3.org/2000/svg"  xmlns:xlink="http://www.w3.org/1999/xlink" width="200" height="200"><defs><style type="text/css"></style></defs><path d="M384 928H192a96 96 0 0 1-96-96V640a96 96 0 0 1 96-96h192a96 96 0 0 1 96 96v192a96 96 0 0 1-96 96zM192 608a32 32 0 0 0-32 32v192a32 32 0 0 0 32 32h192a32 32 0 0 0 32-32V640a32 32 0 0 0-32-32H192zM784 928H640a96 96 0 0 1-96-96V640a96 96 0 0 1 96-96h192a96 96 0 0 1 96 96v144a32 32 0 0 1-64 0V640a32 32 0 0 0-32-32H640a32 32 0 0 0-32 32v192a32 32 0 0 0 32 32h144a32 32 0 0 1 0 64zM384 480H192a96 96 0 0 1-96-96V192a96 96 0 0 1 96-96h192a96 96 0 0 1 96 96v192a96 96 0 0 1-96 96zM192 160a32 32 0 0 0-32 32v192a32 32 0 0 0 32 32h192a32 32 0 0 0 32-32V192a32 32 0 0 0-32-32H192zM832 480H640a96 96 0 0 1-96-96V192a96 96 0 0 1 96-96h192a96 96 0 0 1 96 96v192a96 96 0 0 1-96 96zM640 160a32 32 0 0 0-32 32v192a32 32 0 0 0 32 32h192a32 32 0 0 0 32-32V192a32 32 0 0 0-32-32H640z" ></path></svg>